<?xml version="1.0" standalone="no"?><!DOCTYPE svg PUBLIC "-//W3C//DTD SVG 1.1//EN" "http://www.w3.org/Graphics/SVG/1.1/DTD/svg11.dtd"><svg t="1611653783735" class="icon" viewBox="0 0 1024 1024" version="1.1" xmlns="http://www.w3.org/2000/svg" p-id="1233" width="128" height="128" xmlns:xlink="http://www.w3.org/1999/xlink"><defs><style type="text/css"></style></defs><path d="M906.432 200.576a256.32 256.32 0 0 0-182.4-75.52H538.944a8 8 0 0 0-8 7.936v758.016c0 4.416 3.584 8 8 8h184.96a257.536 257.536 0 0 0 182.272-74.432 253.312 253.312 0 0 0 75.776-181.568V382.976a256.32 256.32 0 0 0-75.584-182.4z m-0.448 442.432a177.856 177.856 0 0 1-53.12 127.488c-34.304 33.92-80 52.48-128.896 52.48h-120.96V201.024h120.96a182.208 182.208 0 0 1 182.016 181.952v260.032zM396.992 124.992H60.992a8 8 0 0 0-8 8v56c0 4.48 3.584 8 8 8h316.032v279.04H96a8 8 0 0 0-8 8v56c0 4.416 3.584 7.936 8 7.936h280.96v279.04H61.056a8 8 0 0 0-8 8v56c0 4.416 3.584 8 8 8h336a51.968 51.968 0 0 0 52.032-52.032V177.024a51.968 51.968 0 0 0-52.032-52.032z" p-id="1234" fill="#800000"></path></svg>